<svg id="visual" viewBox="0 0 900 600" width="900" height="600" xmlns="http://www.w3.org/2000/svg" xmlns:xlink="http://www.w3.org/1999/xlink" version="1.1"><path d="M0 133L13.7 135C27.3 137 54.7 141 82 132C109.3 123 136.7 101 163.8 98C191 95 218 111 245.2 120C272.3 129 299.7 131 327 134C354.3 137 381.7 141 409 143C436.3 145 463.7 145 491 143C518.3 141 545.7 137 573 125C600.3 113 627.7 93 654.8 82C682 71 709 69 736.2 74C763.3 79 790.7 91 818 101C845.3 111 872.7 119 886.3 123L900 127L900 0L886.3 0C872.7 0 845.3 0 818 0C790.7 0 763.3 0 736.2 0C709 0 682 0 654.8 0C627.7 0 600.3 0 573 0C545.7 0 518.3 0 491 0C463.7 0 436.3 0 409 0C381.7 0 354.3 0 327 0C299.7 0 272.3 0 245.2 0C218 0 191 0 163.8 0C136.7 0 109.3 0 82 0C54.7 0 27.3 0 13.7 0L0 0Z" fill="#002f5e"></path><path d="M0 169L13.7 174C27.3 179 54.7 189 82 184C109.3 179 136.7 159 163.8 160C191 161 218 183 245.2 188C272.3 193 299.7 181 327 181C354.3 181 381.7 193 409 196C436.3 199 463.7 193 491 187C518.3 181 545.7 175 573 165C600.3 155 627.7 141 654.8 138C682 135 709 143 736.2 153C763.3 163 790.7 175 818 187C845.3 199 872.7 211 886.3 217L900 223L900 125L886.3 121C872.7 117 845.3 109 818 99C790.7 89 763.3 77 736.2 72C709 67 682 69 654.8 80C627.7 91 600.3 111 573 123C545.7 135 518.3 139 491 141C463.7 143 436.3 143 409 141C381.7 139 354.3 135 327 132C299.7 129 272.3 127 245.2 118C218 109 191 93 163.8 96C136.7 99 109.3 121 82 130C54.7 139 27.3 135 13.7 133L0 131Z" fill="#00376f"></path><path d="M0 337L13.7 342C27.3 347 54.7 357 82 365C109.3 373 136.7 379 163.8 378C191 377 218 369 245.2 364C272.3 359 299.7 357 327 357C354.3 357 381.7 359 409 364C436.3 369 463.7 377 491 379C518.3 381 545.7 377 573 377C600.3 377 627.7 381 654.8 389C682 397 709 409 736.2 410C763.3 411 790.7 401 818 384C845.3 367 872.7 343 886.3 331L900 319L900 221L886.3 215C872.7 209 845.3 197 818 185C790.7 173 763.3 161 736.2 151C709 141 682 133 654.8 136C627.7 139 600.3 153 573 163C545.7 173 518.3 179 491 185C463.7 191 436.3 197 409 194C381.7 191 354.3 179 327 179C299.7 179 272.3 191 245.2 186C218 181 191 159 163.8 158C136.7 157 109.3 177 82 182C54.7 187 27.3 177 13.7 172L0 167Z" fill="#003e80"></path><path d="M0 541L13.7 538C27.3 535 54.7 529 82 529C109.3 529 136.7 535 163.8 529C191 523 218 505 245.2 497C272.3 489 299.7 491 327 503C354.3 515 381.7 537 409 539C436.3 541 463.7 523 491 511C518.3 499 545.7 493 573 491C600.3 489 627.7 491 654.8 495C682 499 709 505 736.2 503C763.3 501 790.7 491 818 497C845.3 503 872.7 525 886.3 536L900 547L900 317L886.3 329C872.7 341 845.3 365 818 382C790.7 399 763.3 409 736.2 408C709 407 682 395 654.8 387C627.7 379 600.3 375 573 375C545.7 375 518.3 379 491 377C463.7 375 436.3 367 409 362C381.7 357 354.3 355 327 355C299.7 355 272.3 357 245.2 362C218 367 191 375 163.8 376C136.7 377 109.3 371 82 363C54.7 355 27.3 345 13.7 340L0 335Z" fill="#195094"></path><path d="M0 601L13.7 601C27.3 601 54.7 601 82 601C109.3 601 136.7 601 163.8 601C191 601 218 601 245.2 601C272.3 601 299.7 601 327 601C354.3 601 381.7 601 409 601C436.3 601 463.7 601 491 601C518.3 601 545.7 601 573 601C600.3 601 627.7 601 654.8 601C682 601 709 601 736.2 601C763.3 601 790.7 601 818 601C845.3 601 872.7 601 886.3 601L900 601L900 545L886.3 534C872.7 523 845.3 501 818 495C790.7 489 763.3 499 736.2 501C709 503 682 497 654.8 493C627.7 489 600.3 487 573 489C545.7 491 518.3 497 491 509C463.7 521 436.3 539 409 537C381.7 535 354.3 513 327 501C299.7 489 272.3 487 245.2 495C218 503 191 521 163.8 527C136.7 533 109.3 527 82 527C54.7 527 27.3 533 13.7 536L0 539Z" fill="#2a62a9"></path></svg>